<?xml version="1.0" encoding="utf-8"?>
<!-- Generator: Adobe Illustrator 25.2.2, SVG Export Plug-In . SVG Version: 6.00 Build 0)  -->
<svg version="1.1" id="Layer_1" xmlns="http://www.w3.org/2000/svg" xmlns:xlink="http://www.w3.org/1999/xlink" x="0px" y="0px"
	 viewBox="0 0 841.89 595.28" style="enable-background:new 0 0 841.89 595.28;" xml:space="preserve">
<style type="text/css">
	.st0{fill:#FFFFFF;}
	.st1{fill:#99DD6E;}
</style>
<g>
	<path class="st0" d="M220.11,291.55c0,7.3-5.92,13.22-13.22,13.22c-7.3,0-13.22-5.92-13.22-13.22s5.92-13.22,13.22-13.22
		C214.19,278.33,220.11,284.25,220.11,291.55"/>
	<path class="st1" d="M206.66,317.85c-15.59,0.39-28.14-11.63-27.54-27.36c0.54-14.18,12.2-24.98,26.05-26.27
		c7.61-0.71,16.39,2.02,21.51,6.75c0.59,0.54,1.5,0.55,2.07-0.02l11.24-10.42c0.6-0.59,0.59-1.56-0.02-2.14
		c-8.47-8.06-21.03-13.79-35.02-12.91c-24.16,1.53-43.53,20.78-44.1,44.98c-0.61,25.83,19.67,46.71,45.37,46.27
		c12.63-0.22,24.47-3.47,33.78-12.25c0.59-0.56,0.57-1.51,0.01-2.09l-10.56-10.8c-0.58-0.6-1.47-0.52-2.12,0
		C221.79,316.01,214.32,317.66,206.66,317.85"/>
	<g>
		<path class="st1" d="M552.73,305.56c-4.1-2.2-7.33-5.26-9.68-9.18c-2.35-3.91-3.52-8.33-3.52-13.27c0-4.93,1.17-9.36,3.52-13.27
			c2.35-3.91,5.57-6.97,9.68-9.18c4.1-2.2,8.71-3.31,13.83-3.31c4.32,0,8.22,0.76,11.7,2.28c3.49,1.52,6.41,3.7,8.79,6.54l-7.4,6.83
			c-3.37-3.89-7.54-5.83-12.52-5.83c-3.09,0-5.83,0.68-8.25,2.03c-2.42,1.35-4.3,3.24-5.65,5.65c-1.35,2.42-2.03,5.17-2.03,8.25
			c0,3.08,0.68,5.83,2.03,8.25c1.35,2.42,3.24,4.3,5.65,5.66c2.42,1.35,5.17,2.03,8.25,2.03c4.98,0,9.15-1.97,12.52-5.91l7.4,6.83
			c-2.37,2.89-5.31,5.1-8.82,6.62c-3.51,1.52-7.42,2.28-11.74,2.28C561.42,308.87,556.83,307.77,552.73,305.56"/>
		<path class="st1" d="M260.73,306.38c-3.2-1.68-5.7-4.02-7.5-7.01c-1.8-2.99-2.7-6.38-2.7-10.17c0-3.79,0.9-7.19,2.7-10.17
			c1.8-2.99,4.3-5.32,7.5-7.01c3.2-1.68,6.82-2.53,10.85-2.53c4.03,0,7.64,0.84,10.81,2.53c3.18,1.68,5.67,4.02,7.47,7.01
			c1.8,2.99,2.7,6.38,2.7,10.17c0,3.8-0.9,7.19-2.7,10.17s-4.29,5.32-7.47,7.01c-3.18,1.68-6.78,2.52-10.81,2.52
			C267.54,308.9,263.93,308.06,260.73,306.38 M278.58,296.91c1.82-1.92,2.74-4.49,2.74-7.72s-0.92-5.8-2.74-7.72
			c-1.83-1.92-4.16-2.88-7.01-2.88c-2.84,0-5.19,0.96-7.04,2.88c-1.85,1.92-2.78,4.49-2.78,7.72s0.92,5.8,2.78,7.72
			c1.85,1.92,4.2,2.88,7.04,2.88C274.42,299.8,276.76,298.83,278.58,296.91"/>
		<path class="st1" d="M337.11,273.76c2.92,2.84,4.37,7.06,4.37,12.66v22.47h-11.1v-20.77c0-3.03-0.67-5.3-1.99-6.79
			c-1.33-1.49-3.25-2.24-5.76-2.24c-2.8,0-5.03,0.87-6.69,2.6c-1.66,1.73-2.49,4.3-2.49,7.72v19.49h-11.1v-39.4h10.6v5.05
			c1.47-1.61,3.3-2.86,5.48-3.74c2.18-0.88,4.58-1.32,7.19-1.32C330.36,269.49,334.19,270.91,337.11,273.76"/>
		<path class="st1" d="M361.65,306.63c-3.25-1.68-5.79-4.02-7.61-7.01c-1.83-2.99-2.74-6.38-2.74-10.17c0-3.79,0.91-7.19,2.74-10.17
			c1.82-2.99,4.36-5.32,7.61-7.01c3.25-1.68,6.91-2.53,10.99-2.53c4.03,0,7.55,0.84,10.56,2.53c3.01,1.68,5.2,4.09,6.58,7.22
			l-8.61,4.62c-1.99-3.51-4.86-5.26-8.61-5.26c-2.89,0-5.29,0.95-7.19,2.85c-1.9,1.9-2.85,4.48-2.85,7.75
			c0,3.27,0.95,5.86,2.85,7.75c1.9,1.9,4.29,2.85,7.19,2.85c3.79,0,6.66-1.76,8.61-5.27l8.61,4.7c-1.38,3.04-3.57,5.41-6.58,7.11
			c-3.01,1.71-6.54,2.56-10.56,2.56C368.56,309.16,364.89,308.32,361.65,306.63"/>
		<path class="st1" d="M439.48,292.33h-28.95c0.52,2.37,1.75,4.24,3.7,5.62c1.94,1.38,4.36,2.06,7.25,2.06c1.99,0,3.76-0.3,5.3-0.89
			c1.54-0.59,2.97-1.53,4.3-2.81l5.91,6.4c-3.61,4.12-8.87,6.19-15.79,6.19c-4.32,0-8.13-0.84-11.45-2.52
			c-3.32-1.68-5.88-4.02-7.68-7.01c-1.8-2.99-2.7-6.38-2.7-10.17c0-3.75,0.89-7.13,2.67-10.14c1.78-3.01,4.22-5.36,7.33-7.04
			c3.1-1.68,6.58-2.53,10.42-2.53c3.74,0,7.14,0.81,10.17,2.42c3.03,1.61,5.42,3.93,7.15,6.94c1.73,3.01,2.6,6.51,2.6,10.49
			C439.69,289.48,439.62,290.48,439.48,292.33 M413.52,280.02c-1.71,1.42-2.75,3.37-3.13,5.83h18.85c-0.38-2.42-1.42-4.35-3.13-5.8
			c-1.71-1.45-3.79-2.17-6.26-2.17C417.33,277.89,415.22,278.6,413.52,280.02"/>
		<path class="st1" d="M736.86,292.33h-28.95c0.52,2.37,1.75,4.24,3.7,5.62c1.94,1.38,4.36,2.06,7.25,2.06c1.99,0,3.76-0.3,5.3-0.89
			c1.54-0.59,2.97-1.53,4.3-2.81l5.91,6.4c-3.61,4.12-8.87,6.19-15.79,6.19c-4.32,0-8.13-0.84-11.45-2.52
			c-3.32-1.68-5.88-4.02-7.68-7.01c-1.8-2.99-2.7-6.38-2.7-10.17c0-3.75,0.89-7.13,2.67-10.14c1.78-3.01,4.22-5.36,7.33-7.04
			c3.1-1.68,6.58-2.53,10.42-2.53c3.74,0,7.14,0.81,10.17,2.42c3.03,1.61,5.42,3.93,7.15,6.94c1.73,3.01,2.6,6.51,2.6,10.49
			C737.07,289.48,737,290.48,736.86,292.33 M710.89,280.02c-1.71,1.42-2.75,3.37-3.13,5.83h18.85c-0.38-2.42-1.42-4.35-3.13-5.8
			c-1.71-1.45-3.79-2.17-6.26-2.17C714.71,277.89,712.6,278.6,710.89,280.02"/>
		<path class="st1" d="M481.61,271.95c2.92,1.64,5.2,3.94,6.87,6.9c1.66,2.96,2.49,6.41,2.49,10.35c0,3.94-0.83,7.39-2.49,10.35
			c-1.66,2.96-3.95,5.26-6.87,6.9c-2.92,1.63-6.15,2.45-9.71,2.45c-4.88,0-8.73-1.54-11.52-4.62v17.86h-11.1v-52.64h10.6v4.98
			c2.75-3.32,6.76-4.98,12.02-4.98C475.45,269.49,478.69,270.31,481.61,271.95 M476.98,296.91c1.82-1.92,2.74-4.49,2.74-7.72
			s-0.91-5.8-2.74-7.72c-1.83-1.92-4.16-2.88-7.01-2.88c-2.84,0-5.18,0.96-7.01,2.88c-1.83,1.92-2.74,4.49-2.74,7.72
			s0.91,5.8,2.74,7.72s4.16,2.88,7.01,2.88C472.82,299.8,475.16,298.83,476.98,296.91"/>
		<path class="st1" d="M635.4,269.48v39.42h-10.53v-5.12c-1.47,1.66-3.23,2.93-5.27,3.81c-2.04,0.88-4.24,1.31-6.62,1.31
			c-5.03,0-9.01-1.45-11.95-4.34c-2.94-2.89-4.41-7.18-4.41-12.88v-22.2h11.1v20.57c0,6.16,2.58,9.25,7.75,9.25
			c2.65,0,4.79-0.86,6.4-2.6c1.61-1.73,2.42-4.3,2.42-7.72v-19.5H635.4z"/>
		<path class="st1" d="M677.54,271.95c2.92,1.64,5.2,3.94,6.87,6.9c1.66,2.96,2.49,6.41,2.49,10.35c0,3.94-0.83,7.39-2.49,10.35
			c-1.66,2.96-3.95,5.26-6.87,6.9c-2.92,1.63-6.15,2.45-9.71,2.45c-5.26,0-9.27-1.66-12.02-4.98v4.98h-10.6v-53.35h11.1v18.56
			c2.8-3.08,6.64-4.62,11.52-4.62C671.38,269.49,674.62,270.31,677.54,271.95 M672.91,296.91c1.82-1.92,2.74-4.49,2.74-7.72
			s-0.91-5.8-2.74-7.72c-1.83-1.92-4.16-2.88-7.01-2.88c-2.84,0-5.18,0.96-7.01,2.88c-1.83,1.92-2.74,4.49-2.74,7.72
			s0.91,5.8,2.74,7.72s4.16,2.88,7.01,2.88C668.75,299.8,671.09,298.83,672.91,296.91"/>
		<path class="st1" d="M529.73,306.46c-1.09,0.81-2.43,1.41-4.02,1.81c-1.59,0.4-3.26,0.6-5.01,0.6c-4.55,0-8.08-1.16-10.56-3.48
			c-2.49-2.32-3.74-5.74-3.74-10.24v-15.72h-5.91v-9.9h5.91v-7.96h11.1v7.96h9.53v9.9h-9.53V295c0,1.61,0.42,2.86,1.25,3.73
			c0.83,0.88,2,1.31,3.52,1.31c1.76,0,3.25-0.47,4.48-1.42L529.73,306.46z"/>
	</g>
</g>
</svg>
